<?xml version="1.0" encoding="UTF-8" ?>
<!DOCTYPE svg PUBLIC "-//W3C//DTD SVG 1.1//EN" "http://www.w3.org/Graphics/SVG/1.1/DTD/svg11.dtd">
<svg width="128pt" height="128pt" viewBox="0 0 32 32" version="1.1" xmlns="http://www.w3.org/2000/svg">

<path fill="#aa0000" d=" M 12.74 0.00 L 19.24 0.00 C 23.52 0.86 27.18 3.36 29.79 6.80 C 27.65 7.57 29.72 9.73 31.02 10.13 C 31.27 10.70 31.76 11.84 32.00 12.41 L 32.00 17.41 C 30.27 18.07 28.54 18.72 26.81 19.37 C 29.60 16.88 28.48 12.91 27.36 9.88 C 24.99 3.25 16.55 -0.35 10.14 2.58 C 3.00 4.94 -0.62 14.26 2.95 20.85 C 4.92 25.57 10.03 28.27 14.97 28.53 C 18.48 28.53 21.53 26.56 24.61 25.13 C 22.88 24.30 21.13 23.52 19.43 22.63 C 18.65 21.70 17.91 20.74 17.23 19.73 C 17.36 19.38 17.60 18.67 17.73 18.32 C 19.04 18.73 20.36 19.15 21.66 19.59 L 20.55 20.09 C 20.01 20.14 18.93 20.24 18.39 20.29 C 20.11 21.36 21.81 22.45 23.54 23.49 C 25.43 24.47 27.53 24.93 29.64 25.07 L 30.27 25.15 C 27.13 28.22 23.76 31.23 19.25 32.00 L 12.76 32.00 C 6.32 30.85 1.17 25.69 0.00 19.26 L 0.00 12.75 C 1.16 6.33 6.31 1.17 12.74 0.00 Z" />
<path fill="#ee1010" d=" M 2.95 20.85 C -0.62 14.26 3.00 4.94 10.14 2.58 C 16.55 -0.35 24.99 3.25 27.36 9.88 C 28.48 12.91 29.60 16.88 26.81 19.37 C 24.74 19.78 22.64 19.92 20.55 20.09 L 21.66 19.59 C 24.24 17.44 24.76 13.69 23.11 10.81 C 22.89 10.36 22.45 9.46 22.23 9.01 C 19.42 1.99 8.09 2.63 5.19 9.30 C 2.17 14.35 4.99 21.75 10.67 23.41 C 13.54 24.82 16.65 23.61 19.43 22.63 C 21.13 23.52 22.88 24.30 24.61 25.13 C 21.53 26.56 18.48 28.53 14.97 28.53 C 10.03 28.27 4.92 25.57 2.95 20.85 Z" />
<path fill="#ff5522" d=" M 5.19 9.30 C 8.09 2.63 19.42 1.99 22.23 9.01 C 20.68 8.91 19.86 9.64 19.78 11.21 C 18.35 8.67 16.08 6.04 12.94 5.94 C 9.37 6.25 6.23 9.38 5.94 12.96 C 6.15 15.74 8.06 18.33 10.62 19.41 C 12.78 19.98 15.03 19.70 17.23 19.73 C 17.91 20.74 18.65 21.70 19.43 22.63 C 16.65 23.61 13.54 24.82 10.67 23.41 C 4.99 21.75 2.17 14.35 5.19 9.30 Z" />
<path fill="#ff7733" d=" M 5.94 12.96 C 6.23 9.38 9.37 6.25 12.94 5.94 C 16.08 6.04 18.35 8.67 19.78 11.21 C 19.99 11.68 20.40 12.61 20.61 13.08 C 19.55 14.77 18.57 16.51 17.73 18.32 C 17.60 18.67 17.36 19.38 17.23 19.73 C 15.03 19.70 12.78 19.98 10.62 19.41 C 8.06 18.33 6.15 15.74 5.94 12.96 Z" />
<path fill="#a7a7a7" d=" M 31.02 10.13 C 29.72 9.73 27.65 7.57 29.79 6.80 C 30.61 7.74 31.02 8.84 31.02 10.13 Z" />
<path fill="#ffee00" d=" M 9.34 9.34 C 10.23 8.94 11.12 8.53 12.00 8.12 C 12.87 8.52 13.75 8.92 14.63 9.31 C 15.05 10.22 15.47 11.12 15.89 12.03 C 15.47 12.91 15.05 13.79 14.65 14.67 C 13.76 15.07 12.88 15.47 12.00 15.88 C 11.13 15.48 10.26 15.08 9.38 14.70 C 8.96 13.80 8.54 12.90 8.12 12.01 C 8.53 11.12 8.93 10.23 9.34 9.34 Z" />
<path fill="#d9dad9" d=" M 19.78 11.21 C 19.86 9.64 20.68 8.91 22.23 9.01 C 22.45 9.46 22.89 10.36 23.11 10.81 C 21.74 10.80 21.01 11.47 20.93 12.85 L 20.61 13.08 C 20.40 12.61 19.99 11.68 19.78 11.21 Z" />
<path fill="#474847" d=" M 20.93 12.85 C 21.01 11.47 21.74 10.80 23.11 10.81 C 23.05 11.35 22.94 12.44 22.88 12.98 C 22.39 12.94 21.41 12.88 20.93 12.85 Z" />
<path fill="#ff5522" d=" M 23.11 10.81 C 24.76 13.69 24.24 17.44 21.66 19.59 C 20.36 19.15 19.04 18.73 17.73 18.32 C 18.57 16.51 19.55 14.77 20.61 13.08 L 20.93 12.85 C 21.45 14.42 22.10 14.46 22.88 12.98 C 22.94 12.44 23.05 11.35 23.11 10.81 Z" />
<path fill="#ee1010" d=" M 20.93 12.85 C 21.41 12.88 22.39 12.94 22.88 12.98 C 22.10 14.46 21.45 14.42 20.93 12.85 Z" />
<path fill="#606060" d=" M 20.55 20.09 C 22.64 19.92 24.74 19.78 26.81 19.37 C 28.58 20.88 30.12 22.71 30.27 25.15 L 29.64 25.07 C 28.70 23.75 27.90 22.35 27.15 20.91 C 25.95 21.78 24.75 22.64 23.54 23.49 C 21.81 22.45 20.11 21.36 18.39 20.29 C 18.93 20.24 20.01 20.14 20.55 20.09 Z" />
<path fill="#7c7c7c" d=" M 23.54 23.49 C 24.75 22.64 25.95 21.78 27.15 20.91 C 27.90 22.35 28.70 23.75 29.64 25.07 C 27.53 24.93 25.43 24.47 23.54 23.49 Z" />
</svg>
